PathFileType	4	(x/y/z)	S01_PSF_T09.trc
DataRate	CameraRate	NumFrames	NumMarkers	Units	OrigDataRate	OrigDataStartFrame	OrigNumFrames
240	240	9	51	mm	240	101	402
Frame#	Time	Sternum			R.Acromium			L.Acromium			Top.Head			R.ASIS			L.ASIS			R.PSIS			L.PSIS			R.Great.Tro			L.Great.Tro			R.Iliac.Crest			L.Iliac.Crest			V.Sacral			R.Thigh.Upper.Post			R.Thigh.Lower.Ant			R.Thigh.Lower.Post			R.Thigh.Upper.Ant			R.Knee.Lat			R.Knee.Med			R.Shank.Upper.Post			R.Shank.Lower.Ant			R.Shank.Lower.Post			R.Shank.Upper.Ant			R.Ankle.Lat			R.Ankle.Med			R.Heel.Upper			R.Heel.Med			R.Heel.Lat			R.Toe.Lat			R.Toe.Med			R.Toe.Tip			L.Thigh.Upper.Post			L.Thigh.Lower.Ant			L.Thigh.Lower.Post			L.Thigh.Upper.Ant			L.Knee.Lat			L.Knee.Med			L.Shank.Upper.Post			L.Shank.Lower.Ant			L.Shank.Lower.Post			L.Shank.Upper.Ant			L.Ankle.Lat			L.Ankle.Med			L.Heel.Upper			L.Heel.Med			L.Heel.Lat			L.Toe.Lat			L.Toe.Med			L.Toe.Tip			Cervical.Spine			Back			
		X1	Y1	Z1	X2	Y2	Z2	X3	Y3	Z3	X4	Y4	Z4	X5	Y5	Z5	X6	Y6	Z6	X7	Y7	Z7	X8	Y8	Z8	X9	Y9	Z9	X10	Y10	Z10	X11	Y11	Z11	X12	Y12	Z12	X13	Y13	Z13	X14	Y14	Z14	X15	Y15	Z15	X16	Y16	Z16	X17	Y17	Z17	X18	Y18	Z18	X19	Y19	Z19	X20	Y20	Z20	X21	Y21	Z21	X22	Y22	Z22	X23	Y23	Z23	X24	Y24	Z24	X25	Y25	Z25	X26	Y26	Z26	X27	Y27	Z27	X28	Y28	Z28	X29	Y29	Z29	X30	Y30	Z30	X31	Y31	Z31	X32	Y32	Z32	X33	Y33	Z33	X34	Y34	Z34	X35	Y35	Z35	X36	Y36	Z36	X37	Y37	Z37	X38	Y38	Z38	X39	Y39	Z39	X40	Y40	Z40	X41	Y41	Z41	X42	Y42	Z42	X43	Y43	Z43	X44	Y44	Z44	X45	Y45	Z45	X46	Y46	Z46	X47	Y47	Z47	X48	Y48	Z48	X49	Y49	Z49	X50	Y50	Z50	X51	Y51	Z51	

101	0.41667	-845.33	1261.6	296.47	-961.81	1515.2	469.53	-966.42	1535.1	142.09	-941.32	1841.6	310.42	-905.37	1015.7	447.39	-892.64	1015.9	180.55	-1139.8	1051.7	350	-1143.2	1061.6	247.64	-983.96	960.44	528.73	-1007.9	974.32	99.75	-999.87	1112.7	507.96	-999.38	1098.7	103.99	-1156.1	1022.1	293.43	-874.49	666.23	504.76	-780.66	630.96	477.72	-835.57	588.56	479.36	-817.77	711.49	499.63	-786.72	548.02	475.47	-779.4	549.51	324.78	-783.76	382.05	491.56	-694.2	328	455.39	-761.73	315.41	480.54	-721.29	394.57	471.99	-676.94	123.5	445.76	-643.66	148.22	357.2	-721.82	65.579	380.33	-690.69	49.477	352.28	-700.25	42.084	416.2	-530.28	111.54	488.97	-495.71	138.74	371.72	-454.13	183.63	431.45	-1109.4	713.56	128.03	-1043.4	624.43	130.22	-1121.9	624.63	144.4	-1039.4	717.74	109.07	-1100.5	528.95	134.92	-1076.5	525.85	279.56	-1187.2	398.14	125.69	-1141.9	299.42	151.08	-1201.2	320.94	132.07	-1127.1	374.64	139.91	-1251.2	111.01	178.76	-1223.2	120	276.05	-1323.2	81.183	226.08	-1313.6	55.582	258.42	-1316.8	56.993	196.22	-1105.8	38.768	159.17	-1080.5	44.851	280.23	-1016.6	52.139	229.17	-1047.3	1583.5	307.21	-1150	1277.9	314.42
102	0.42083	-839.52	1260.1	297.04	-956.07	1513.4	470.31	-960.76	1533.6	142.89	-935.81	1840.2	311.51	-899.48	1014.1	447.7	-886.84	1014.6	180.66	-1134	1050.1	350.21	-1137.1	1060.2	247.94	-978.04	958.64	528.82	-1002.3	973.3	99.764	-994.59	1110.9	508.44	-993.62	1097.4	104.19	-1150.2	1020.7	293.59	-868.34	664.79	504.82	-774.6	629.69	477.21	-829.4	587.17	479.26	-811.73	710.14	499.24	-780.29	546.94	475.2	-773.86	548.03	324.36	-775.57	380.95	491.59	-685.52	327.8	455.18	-752.86	314.51	480.53	-713.27	394.11	471.75	-665.91	123.32	445.71	-633.31	148.34	356.96	-710.43	64.752	380.53	-679.22	48.973	352.37	-688.4	41.542	416.37	-518.83	113.15	488.28	-485.12	140.66	370.82	-443.8	186.21	430.36	-1104.8	713	128.24	-1039.1	623.6	130.26	-1117.5	624.11	144.59	-1034.8	716.92	109.16	-1096.7	528.36	134.95	-1072.4	525.01	279.57	-1184.3	398.14	125.73	-1139.8	299.06	151.09	-1198.9	321.05	132.07	-1124.5	374.15	139.95	-1250.8	111.43	178.83	-1222.8	120.35	276.09	-1322.9	81.828	226.15	-1313.4	56.201	258.5	-1316.7	57.585	196.3	-1105.8	38.741	159.19	-1080.3	44.735	280.24	-1016.5	51.868	229.19	-1041.7	1582	308.03	-1144.3	1276.3	314.89
103	0.425	-833.69	1258.5	297.63	-950.32	1511.7	471.12	-955.08	1532.2	143.72	-930.29	1838.7	312.63	-893.55	1012.6	448	-881.03	1013.4	180.76	-1128.1	1048.5	350.44	-1131	1058.8	248.24	-972.06	956.87	528.91	-996.7	972.26	99.793	-989.26	1109.1	508.93	-987.89	1096.2	104.39	-1144.3	1019.2	293.78	-862.03	663.44	504.89	-768.39	628.51	476.72	-823.06	585.89	479.19	-805.53	708.9	498.86	-773.77	545.88	474.97	-768.17	546.62	324.02	-767.53	379.89	491.59	-677.09	327.49	454.95	-744.24	313.63	480.5	-705.4	393.59	471.5	-655.46	123.08	445.59	-623.5	148.34	356.66	-699.7	63.967	380.65	-668.44	48.458	352.39	-677.26	41.002	416.46	-508.01	114.45	487.54	-475.13	142.22	369.87	-434	188.33	429.23	-1100	712.41	128.48	-1034.7	622.75	130.31	-1113.1	623.55	144.8	-1030.1	716.07	109.27	-1092.7	527.74	134.99	-1068.1	524.14	279.59	-1181.3	398.13	125.77	-1137.7	298.7	151.1	-1196.6	321.17	132.06	-1121.8	373.65	140.01	-1250.3	111.88	178.88	-1222.3	120.74	276.13	-1322.7	82.548	226.21	-1313.2	56.894	258.56	-1316.5	58.236	196.36	-1105.7	38.716	159.22	-1080.2	44.624	280.25	-1016.4	51.598	229.21	-1036.1	1580.6	308.89	-1138.6	1274.8	315.37
104	0.42917	-827.84	1257	298.23	-944.56	1509.9	471.95	-949.39	1530.8	144.57	-924.76	1837.3	313.77	-887.58	1011	448.27	-875.19	1012.1	180.85	-1122.3	1046.9	350.7	-1124.9	1057.4	248.57	-966.03	955.15	529.01	-991.07	971.2	99.839	-983.88	1107.2	509.43	-982.18	1094.9	104.59	-1138.3	1017.7	293.99	-855.56	662.19	504.97	-762.02	627.45	476.23	-816.56	584.7	479.14	-799.19	707.76	498.49	-767.15	544.85	474.75	-762.33	545.3	323.76	-759.66	378.84	491.58	-668.91	327.08	454.7	-735.89	312.74	480.43	-697.67	393	471.25	-645.61	122.75	445.41	-614.23	148.21	356.31	-689.64	63.212	380.7	-658.38	47.917	352.33	-666.84	40.452	416.48	-497.84	115.42	486.75	-465.73	143.39	368.89	-424.72	189.99	428.08	-1095.2	711.79	128.74	-1030.2	621.89	130.36	-1108.6	622.96	145.03	-1025.3	715.21	109.4	-1088.5	527.09	135.06	-1063.7	523.24	279.6	-1178.2	398.13	125.81	-1135.5	298.34	151.12	-1194.1	321.31	132.05	-1118.9	373.14	140.08	-1249.8	112.39	178.91	-1221.8	121.17	276.14	-1322.4	83.348	226.24	-1313	57.668	258.6	-1316.3	58.951	196.41	-1105.7	38.695	159.25	-1080.1	44.518	280.28	-1016.3	51.327	229.24	-1030.4	1579.1	309.78	-1132.9	1273.2	315.87
105	0.43333	-821.95	1255.5	298.85	-938.8	1508.2	472.81	-943.67	1529.4	145.46	-919.23	1835.9	314.94	-881.57	1009.5	448.54	-869.33	1010.9	180.92	-1116.3	1045.3	350.97	-1118.8	1055.9	248.92	-959.94	953.48	529.13	-985.4	970.12	99.903	-978.42	1105.4	509.93	-976.5	1093.6	104.79	-1132.3	1016.2	294.24	-848.95	661.04	505.05	-755.5	626.49	475.75	-809.9	583.62	479.11	-792.7	706.73	498.11	-760.43	543.84	474.55	-756.32	544.05	323.56	-751.94	377.82	491.54	-660.98	326.56	454.42	-727.79	311.84	480.33	-690.08	392.33	470.99	-636.36	122.32	445.18	-605.51	147.91	355.92	-680.26	62.477	380.68	-649.02	47.336	352.22	-657.17	39.881	416.42	-488.31	116.06	485.95	-456.91	144.16	367.88	-415.97	191.14	426.91	-1090.3	711.13	129.02	-1025.6	621.01	130.42	-1103.9	622.34	145.28	-1020.4	714.34	109.54	-1084.3	526.41	135.14	-1059.1	522.31	279.63	-1175	398.14	125.86	-1133.1	297.98	151.15	-1191.6	321.47	132.04	-1116	372.62	140.16	-1249.3	112.94	178.92	-1221.2	121.66	276.14	-1322.2	84.236	226.24	-1312.7	58.529	258.63	-1316.1	59.737	196.43	-1105.7	38.677	159.29	-1080	44.418	280.3	-1016.2	51.058	229.28	-1024.7	1577.6	310.7	-1127.1	1271.6	316.39
106	0.4375	-816.04	1254.1	299.48	-933.03	1506.5	473.71	-937.95	1528	146.37	-913.7	1834.5	316.13	-875.5	1008.1	448.79	-863.45	1009.7	180.99	-1110.4	1043.7	351.28	-1112.7	1054.5	249.28	-953.79	951.86	529.26	-979.69	969.02	99.986	-972.89	1103.6	510.43	-970.83	1092.3	105	-1126.2	1014.7	294.51	-842.2	659.98	505.1	-748.83	625.63	475.27	-803.09	582.63	479.07	-786.08	705.79	497.74	-753.63	542.86	474.35	-750.14	542.9	323.42	-744.38	376.81	491.48	-653.29	325.93	454.1	-719.96	310.93	480.2	-682.63	391.57	470.71	-627.71	121.8	444.9	-597.32	147.45	355.48	-671.55	61.757	380.6	-640.38	46.705	352.04	-648.23	39.287	416.3	-479.42	116.34	485.13	-448.67	144.5	366.85	-407.72	191.79	425.73	-1085.3	710.46	129.32	-1020.9	620.12	130.49	-1099.2	621.69	145.54	-1015.4	713.46	109.7	-1079.9	525.71	135.24	-1054.4	521.37	279.66	-1171.7	398.16	125.91	-1130.8	297.63	151.18	-1189	321.65	132.03	-1112.9	372.09	140.25	-1248.7	113.55	178.91	-1220.6	122.19	276.11	-1321.9	85.219	226.22	-1312.5	59.483	258.63	-1315.9	60.602	196.43	-1105.6	38.661	159.33	-1079.8	44.325	280.33	-1016.1	50.79	229.32	-1019.1	1576.2	311.66	-1121.3	1270.1	316.93
107	0.44167	-810.1	1252.7	300.12	-927.25	1504.8	474.62	-932.21	1526.7	147.31	-908.16	1833.2	317.35	-869.39	1006.6	449.04	-857.53	1008.4	181.06	-1104.4	1042.1	351.61	-1106.6	1053	249.67	-947.59	950.31	529.4	-973.94	967.91	100.09	-967.27	1101.9	510.93	-965.18	1091	105.22	-1120.2	1013.2	294.82	-835.31	659.01	505.14	-742.03	624.86	474.79	-796.14	581.73	479.04	-779.32	704.95	497.37	-746.73	541.91	474.15	-743.81	541.84	323.34	-736.98	375.82	491.38	-645.84	325.18	453.76	-712.39	310.01	480.03	-675.32	390.74	470.41	-619.65	121.17	444.58	-589.68	146.81	355	-663.53	61.051	380.45	-632.44	46.019	351.82	-640.03	38.668	416.12	-471.16	116.27	484.31	-441	144.41	365.83	-399.97	191.91	424.56	-1080.2	709.76	129.63	-1016	619.23	130.57	-1094.3	621.02	145.83	-1010.3	712.57	109.88	-1075.4	525	135.36	-1049.6	520.41	279.7	-1168.3	398.19	125.96	-1128.3	297.29	151.22	-1186.2	321.86	132.02	-1109.8	371.57	140.36	-1248.1	114.22	178.88	-1220	122.79	276.07	-1321.6	86.304	226.17	-1312.2	60.537	258.61	-1315.6	61.553	196.41	-1105.6	38.648	159.36	-1079.7	44.238	280.37	-1015.9	50.524	229.37	-1013.4	1574.8	312.64	-1115.5	1268.6	317.49
108	0.44583	-804.14	1251.3	300.77	-921.46	1503.2	475.57	-926.45	1525.4	148.27	-902.62	1831.9	318.6	-863.23	1005.3	449.28	-851.59	1007.2	181.13	-1098.4	1040.6	351.97	-1100.5	1051.6	250.07	-941.31	948.82	529.56	-968.14	966.78	100.21	-961.56	1100.2	511.44	-959.53	1089.8	105.44	-1114.1	1011.7	295.15	-828.3	658.13	505.14	-735.1	624.19	474.31	-789.07	580.92	478.99	-772.43	704.2	497	-739.76	540.98	473.95	-737.33	540.86	323.3	-729.73	374.84	491.25	-638.63	324.31	453.38	-705.07	309.06	479.83	-668.14	389.83	470.09	-612.18	120.44	444.21	-582.55	145.99	354.48	-656.16	60.361	380.24	-625.21	45.277	351.55	-632.56	38.027	415.89	-463.53	115.83	483.51	-433.87	143.88	364.81	-392.71	191.51	423.39	-1075	709.04	129.97	-1011.1	618.32	130.65	-1089.4	620.33	146.14	-1005.2	711.68	110.07	-1070.8	524.26	135.5	-1044.7	519.44	279.75	-1164.7	398.24	126.02	-1125.7	296.97	151.25	-1183.4	322.1	132.01	-1106.5	371.05	140.47	-1247.5	114.95	178.82	-1219.4	123.44	276	-1321.4	87.498	226.08	-1311.9	61.697	258.57	-1315.4	62.598	196.37	-1105.5	38.638	159.4	-1079.6	44.16	280.4	-1015.8	50.26	229.42	-1007.7	1573.3	313.66	-1109.6	1267	318.07
109	0.45	-798.14	1250	301.44	-915.67	1501.5	476.55	-920.69	1524.1	149.26	-897.07	1830.6	319.86	-857	1003.9	449.52	-845.61	1006	181.2	-1092.3	1039	352.35	-1094.3	1050.1	250.49	-934.97	947.4	529.73	-962.3	965.65	100.36	-955.75	1098.5	511.95	-953.87	1088.5	105.68	-1107.9	1010.2	295.53	-821.19	657.33	505.11	-728.07	623.59	473.84	-781.88	580.2	478.93	-765.44	703.53	496.62	-732.71	540.08	473.74	-730.71	539.97	323.3	-722.64	373.87	491.1	-631.64	323.32	452.97	-698	308.09	479.59	-661.1	388.84	469.75	-605.27	119.61	443.82	-575.92	145	353.93	-649.45	59.694	379.98	-618.65	44.483	351.24	-625.81	37.372	415.63	-456.51	115.05	482.72	-427.27	142.91	363.8	-385.91	190.59	422.24	-1069.8	708.3	130.32	-1006.1	617.42	130.74	-1084.3	619.63	146.46	-999.94	710.79	110.27	-1066.1	523.52	135.66	-1039.6	518.47	279.81	-1161.1	398.31	126.09	-1123.1	296.67	151.29	-1180.5	322.38	132.01	-1103.2	370.54	140.59	-1246.8	115.76	178.74	-1218.7	124.16	275.92	-1321	88.808	225.98	-1311.6	62.971	258.51	-1315.1	63.745	196.31	-1105.5	38.63	159.44	-1079.5	44.089	280.45	-1015.7	49.999	229.48	-1002	1572	314.7	-1103.7	1265.6	318.67
